<svg xmlns="http://www.w3.org/2000/svg" viewBox="0 0 512 512" role="img" aria-label="Life Manager logo">
  <title>Life Manager</title>
  <defs>
    <linearGradient id="bg" x1="70" y1="50" x2="450" y2="500" gradientUnits="userSpaceOnUse">
      <stop offset="0" stop-color="#233b37"/>
      <stop offset=".55" stop-color="#102a2f"/>
      <stop offset="1" stop-color="#081c22"/>
    </linearGradient>
    <linearGradient id="cream" x1="167" y1="113" x2="411" y2="284" gradientUnits="userSpaceOnUse">
      <stop offset="0" stop-color="#f6e7c9"/>
      <stop offset=".55" stop-color="#ead6ac"/>
      <stop offset="1" stop-color="#c1c9b2"/>
    </linearGradient>
    <linearGradient id="teal" x1="197" y1="244" x2="433" y2="393" gradientUnits="userSpaceOnUse">
      <stop offset="0" stop-color="#9ab6aa"/>
      <stop offset=".5" stop-color="#2f666a"/>
      <stop offset="1" stop-color="#2a5262"/>
    </linearGradient>
    <linearGradient id="sage" x1="143" y1="233" x2="261" y2="399" gradientUnits="userSpaceOnUse">
      <stop offset="0" stop-color="#bdcbb5"/>
      <stop offset="1" stop-color="#6d8f7f"/>
    </linearGradient>
    <filter id="shadow" x="-20%" y="-20%" width="140%" height="150%">
      <feDropShadow dx="0" dy="12" stdDeviation="10" flood-color="#000" flood-opacity=".32"/>
    </filter>
    <filter id="soft" x="-15%" y="-15%" width="130%" height="130%">
      <feDropShadow dx="0" dy="6" stdDeviation="5" flood-color="#000" flood-opacity=".22"/>
    </filter>
  </defs>

  <rect width="512" height="512" rx="92" fill="url(#bg)"/>
  <rect x="10" y="10" width="492" height="492" rx="84" fill="none" stroke="#ffffff" stroke-opacity=".06" stroke-width="2"/>

  <g filter="url(#shadow)">
    <path d="M166 118C236 97 342 96 401 155c49 49 51 125 2 183-14-54-48-94-98-119-39-20-86-31-139-33-19-1-29-22-15-35 5-5 10-8 15-33z" fill="url(#cream)"/>
    <path d="M166 118C236 97 342 96 401 155c49 49 51 125 2 183" fill="none" stroke="#fff6e3" stroke-opacity=".55" stroke-width="5" stroke-linecap="round"/>
    <path d="M157 381c8-83 46-138 116-166-11 79-52 138-116 166z" fill="url(#sage)" stroke="#d9e3cf" stroke-opacity=".42" stroke-width="3"/>
    <path d="M180 338c84-70 165-85 242-50-54 53-127 91-222 117-8-20-15-42-20-67z" fill="url(#teal)" stroke="#9ab7b6" stroke-opacity=".35" stroke-width="3"/>
    <path d="M219 369c56-43 112-55 167-29-40 40-97 59-167 29z" fill="#335c68" opacity=".95"/>
  </g>

  <g filter="url(#soft)" stroke-linecap="round" stroke-linejoin="round">
    <path d="M126 305c18-73 52-123 96-164" fill="none" stroke="#827861" stroke-width="5"/>
    <g fill="#8d9c82" stroke="#c8d0b2" stroke-width="1.8">
      <ellipse cx="158" cy="218" rx="11" ry="28" transform="rotate(-63 158 218)"/>
      <ellipse cx="181" cy="193" rx="11" ry="27" transform="rotate(-42 181 193)"/>
      <ellipse cx="207" cy="166" rx="10" ry="25" transform="rotate(-28 207 166)"/>
      <ellipse cx="182" cy="238" rx="11" ry="28" transform="rotate(-70 182 238)"/>
      <ellipse cx="210" cy="214" rx="10" ry="27" transform="rotate(-51 210 214)"/>
      <ellipse cx="232" cy="188" rx="9" ry="24" transform="rotate(-37 232 188)"/>
      <ellipse cx="149" cy="263" rx="11" ry="27" transform="rotate(-76 149 263)"/>
      <ellipse cx="179" cy="267" rx="10" ry="26" transform="rotate(-70 179 267)"/>
      <ellipse cx="205" cy="251" rx="10" ry="25" transform="rotate(-57 205 251)"/>
    </g>
    <g fill="none" stroke="#4f584c" stroke-opacity=".55" stroke-width="1.2">
      <path d="M147 219l23-1M172 194l18 8M199 169l15 15M168 239l25-2M199 214l20 5M224 190l13 11M136 264l24-1M167 268l25-4M197 252l17 1"/>
    </g>
    <g fill="#c96b4a" stroke="#7b3328" stroke-width="2">
      <circle cx="112" cy="296" r="13"/>
      <circle cx="139" cy="292" r="13"/>
      <circle cx="165" cy="301" r="12"/>
      <circle cx="123" cy="322" r="12"/>
      <circle cx="151" cy="327" r="13"/>
      <circle cx="178" cy="326" r="11"/>
      <circle cx="132" cy="350" r="11"/>
      <circle cx="161" cy="355" r="12"/>
      <circle cx="190" cy="348" r="11"/>
    </g>
    <g fill="#2e1d1a" opacity=".65">
      <circle cx="108" cy="290" r="2"/><circle cx="137" cy="286" r="2"/><circle cx="165" cy="295" r="2"/>
      <circle cx="121" cy="316" r="2"/><circle cx="151" cy="321" r="2"/><circle cx="178" cy="320" r="2"/>
      <circle cx="129" cy="344" r="2"/><circle cx="160" cy="349" r="2"/><circle cx="190" cy="342" r="2"/>
    </g>
  </g>

  <g filter="url(#soft)" fill="none" stroke-linecap="round" stroke-linejoin="round">
    <g stroke="#9faf8f" stroke-width="4">
      <path d="M277 304c38-45 75-72 120-91"/>
      <path d="M304 282l-12-27M321 269l-6-29M339 256l0-30M358 246l7-30M379 236l13-25"/>
      <path d="M304 282l-31 3M321 269l-29 10M339 256l-28 15M358 246l-23 22M379 236l-19 26"/>
    </g>
    <g stroke="#8fa383" stroke-width="4">
      <path d="M259 360c46-15 88-17 137-4"/>
      <path d="M286 354l-25-15M309 352l-18-22M333 353l-10-26M357 357l-3-28M380 363l8-27"/>
      <path d="M286 354l-22 19M309 352l-18 24M333 353l-10 27M357 357l-2 29M380 363l5 26"/>
      <path d="M119 385c24-36 51-59 83-73"/>
      <path d="M138 363l-18-20M155 348l-9-24M175 335l0-25M193 321l12-22"/>
      <path d="M138 363l-26 4M155 348l-25 13M175 335l-22 17M193 321l-14 23"/>
    </g>
  </g>
</svg>
